<svg xmlns="http://www.w3.org/2000/svg" viewBox="17 34 127 113">
	<defs>
		<linearGradient id="a" x1="28.286" x2="70.714" y1="53.757" y2="127.243" gradientUnits="userSpaceOnUse">
			<stop offset="0" stop-color="#2368c4"/>
			<stop offset=".5" stop-color="#1a5dbe"/>
			<stop offset="1" stop-color="#1146ac"/>
		</linearGradient>
	</defs>
	<path fill="#41a5ee" d="M138.62 34H52.38A5.38 5.38 0 0 0 47 39.38V62l50 9 47-9V39.38a5.38 5.38 0 0 0-5.38-5.38z"/>
	<path fill="#2b7cd3" d="M144 62H47v28l49 10 48-10V62z"/>
	<path fill="#185abd" d="M47 90v28l51 10 46-10V90H47z"/>
	<path fill="#103f91" d="M52.381 147h86.238a5.381 5.381 0 0 0 5.381-5.381V118H47v23.619A5.381 5.381 0 0 0 52.381 147z"/>
	<path d="M47 57v71h32.62a5.38 5.38 0 0 0 5.38-5.38V63c0-2.971-2.409-6-5.38-6z" opacity=".05"/>
	<path d="M47 57.25V127h31.965a5.3 5.3 0 0 0 5.285-5.38V63.1c0-2.971-2.409-5.845-5.38-5.845z" opacity=".075"/>
	<path d="M47 57.5V126h31.31a5.221 5.221 0 0 0 5.19-5.38V63.19a5.654 5.654 0 0 0-5.38-5.69z" opacity=".1"/>
	<path d="M47 57.75V125h30.655a5.144 5.144 0 0 0 5.095-5.38V63.285a5.515 5.515 0 0 0-5.38-5.535z" opacity=".125"/>
	<path d="M47 58v66h30a5.069 5.069 0 0 0 5-5.38V63.38A5.38 5.38 0 0 0 76.62 58z" opacity=".15"/>
	<rect width="65" height="65" x="17" y="58" fill="url(#a)" rx="5.38"/>
	<path fill="#fff" d="M39.08 98.976q.159 1.245.208 2.171h.122q.072-.878.28-2.122t.4-2.1l5.659-24.416h7.317l5.855 24.051a34.986 34.986 0 0 1 .731 4.537h.1a34.521 34.521 0 0 1 .61-4.391l4.683-24.2h6.659l-8.2 34.978h-7.776l-5.586-23.167q-.243-1-.548-2.61t-.379-2.342h-.1q-.1.854-.378 2.537t-.451 2.488l-5.245 23.1h-7.9l-8.269-34.979h6.781l5.1 24.465q.169.756.327 2z"/>
</svg>